<?xml version="1.0" encoding="utf-8"?>
<!-- Generator: Adobe Illustrator 19.0.1, SVG Export Plug-In . SVG Version: 6.00 Build 0)  -->
<svg version="1.1" id="Layer_1" xmlns="http://www.w3.org/2000/svg" xmlns:xlink="http://www.w3.org/1999/xlink" x="0px" y="0px"
	 viewBox="0 0 128 128" style="enable-background:new 0 0 128 128;" xml:space="preserve">
<style type="text/css">
	.st0{fill:#2CC0D5;}
	.st1{fill:#F0F2F4;}
	.st2{fill:#D4DDDD;}
	.st3{fill:#F5876E;}
	.st4{fill:#FFFFFF;}
	.st5{fill:#86CA8E;}
	.st6{fill:#06B0C1;}
	.st7{fill:#F0C040;}
	.st8{fill:#F4DA80;}
	.st9{fill:#484F5B;}
	.st10{fill:#C2E1B5;}
</style>
<g>
	<circle class="st8" cx="64" cy="64" r="63.5"/>
	<g>
		<path class="st1" d="M78.1,24.9H33.8c-1.2,0-2.1,1-2.1,2.1v74c0,1.2,1,2.1,2.1,2.1h60.5c1.2,0,2.1-1,2.1-2.1V43.1L78.1,24.9z"/>
		<path class="st2" d="M78.1,24.9V41c0,1.2,1,2.1,2.1,2.1h16.1L78.1,24.9z"/>
		<path class="st6" d="M70.5,74.7L70.5,74.7c-1.8,1.8-1.8,4.7,0,6.5l8.5,8.5c1.8,1.8,4.7,1.8,6.5,0v0c1.8-1.8,1.8-4.7,0-6.5
			l-8.5-8.5C75.3,72.9,72.3,72.9,70.5,74.7z"/>
		<circle class="st9" cx="59.1" cy="63.3" r="17.7"/>
		<circle class="st10" cx="59.1" cy="63.3" r="12.5"/>
	</g>
</g>
</svg>
